Coordinates
version=1
nRows=12
nColumns=24
inDegrees=yes

Units are S.I. units (second, meters, Newtons, ...)
Angles are in degrees.

endheader
time	pelvis_tilt	pelvis_list	pelvis_rotation	pelvis_tx	pelvis_ty	pelvis_tz	hip_flexion_r	hip_adduction_r	hip_rotation_r	knee_angle_r	ankle_angle_r	subtalar_angle_r	mtp_angle_r	hip_flexion_l	hip_adduction_l	hip_rotation_l	knee_angle_l	ankle_angle_l	subtalar_angle_l	mtp_angle_l	lumbar_extension	lumbar_bending	lumbar_rotation
      0.53800000	      0.21362658	      3.13191700	     -1.44023534	     -0.82079250	      1.04997216	      0.32623799	     21.20161999	      0.59475031	     -8.50706054	      2.52272274	      3.03386745	     -1.85901949	     -0.14536261	    -16.14945325	      7.63138343	     -4.83612314	     -4.44838138	     11.63698129	      3.11985262	      0.02825911	      4.42484907	     -0.33257145	     -3.22112796
      0.54216667	      0.25645438	      3.09868502	     -1.53285943	     -0.81499726	      1.04956899	      0.32650991	     21.12886015	      0.71164551	     -8.44606179	      2.26695336	      2.97590638	     -1.78518470	     -0.15405828	    -16.35129276	      7.60478285	     -4.90959142	     -4.80223677	     11.58899048	      3.08553664	      0.00405952	      4.57050988	     -0.35707307	     -3.27627604
      0.54633333	      0.26330586	      3.03318799	     -1.65423174	     -0.80901603	      1.04914724	      0.32682353	     21.09989341	      0.87284493	     -8.41849174	      1.91183047	      2.97620106	     -1.65898060	     -0.17513616	    -16.49146221	      7.54554486	     -5.11757981	     -5.20853193	     11.51398164	      3.04494922	     -0.05619744	      4.55102490	     -0.28630905	     -3.42422297
      0.55050000	      0.22619063	      2.96329230	     -1.66254936	     -0.80297920	      1.04874036	      0.32696761	     21.08266052	      0.99792443	     -8.33933481	      1.56404932	      2.94869068	     -1.64645356	     -0.17568048	    -16.59804782	      7.44984703	     -5.03973580	     -5.60197444	     11.48117662	      3.04631230	     -0.05867965	      4.57647621	     -0.27581396	     -3.42890390
      0.55466667	      0.27258685	      2.96328132	     -1.68726001	     -0.79719427	      1.04846915	      0.32706382	     21.02255868	      1.03830959	     -8.28628636	      1.13341404	      2.91675325	     -1.64687188	     -0.17888080	    -16.72070013	      7.44074187	     -5.02108257	     -6.13721682	     11.42681855	      3.04127805	     -0.06818312	      4.65673193	     -0.18230730	     -3.45532758
      0.55883333	      0.29081727	      2.92740832	     -1.70996075	     -0.79124256	      1.04819152	      0.32716826	     20.97607317	      1.11641061	     -8.22373058	      0.66423835	      2.86371433	     -1.65293608	     -0.18266206	    -16.81953927	      7.38683788	     -5.03331193	     -6.64774835	     11.35911259	      3.03155903	     -0.07960675	      4.69185920	     -0.09434725	     -3.48873325
      0.56300000	      0.29500538	      2.86182114	     -1.79858590	     -0.78517790	      1.04788787	      0.32736938	     20.94734304	      1.24922554	     -8.15025441	      0.17745263	      2.70176227	     -1.70046889	     -0.19431271	    -16.89701588	      7.31412415	     -5.19905225	     -7.17618598	     11.18974212	      3.03675835	     -0.11232256	      4.65002227	      0.04060265	     -3.57677025
      0.56716667	      0.33271225	      2.81713767	     -1.79547485	     -0.77914865	      1.04772302	      0.32742422	     20.84985388	      1.32007131	     -8.02083573	     -0.28027578	      2.60563659	     -1.70802345	     -0.19665333	    -16.98377860	      7.23854090	     -5.16581212	     -7.76322879	     11.10985929	      3.04112033	     -0.11960925	      4.72281654	      0.10576607	     -3.59450568
      0.57133333	      0.36582429	      2.76963470	     -1.81132412	     -0.77311043	      1.04758330	      0.32750591	     20.75835523	      1.39698599	     -7.88886953	     -0.73866819	      2.46397687	     -1.73279831	     -0.19909647	    -17.04377637	      7.16159577	     -5.16592448	     -8.40349379	     11.00270889	      3.04319918	     -0.12594938	      4.76668055	      0.19653725	     -3.61960956
      0.57550000	      0.43389061	      2.66155291	     -1.99435360	     -0.76688615	      1.04745631	      0.32796635	     20.60265727	      1.61240965	     -7.45932280	     -1.12895805	      1.63151133	     -2.25003412	     -0.22022279	    -17.13713100	      7.04287986	     -5.57535767	     -9.00995663	     10.54764867	      3.25334639	     -0.16359497	      4.76098439	      0.30693935	     -3.74109720
      0.57966667	      0.49271467	      2.59686093	     -2.07369593	     -0.76086276	      1.04740769	      0.32837944	     20.44148304	      1.75294207	     -6.94954041	     -1.50903558	      1.09412544	     -3.09770433	     -0.23697220	    -17.16336667	      6.92544529	     -5.82804497	     -9.75184501	     10.38378906	      3.55471490	     -0.18245357	      4.65372407	      0.45381163	     -3.80366356
      0.58383333	      0.48540975	      2.50688020	     -2.02453248	     -0.75461082	      1.04739332	      0.32853033	     20.31375373	      1.86153581	     -6.68387365	     -1.86513480	      0.82627027	     -3.20112464	     -0.23872441	    -17.10752225	      6.74740578	     -5.93660827	    -10.53665722	     10.21841561	      3.60677071	     -0.18181331	      4.65565069	      0.52914449	     -3.80803799
